<mxfile host="app.diagrams.net" agent="Mozilla/5.0 (Windows NT 10.0; Win64; x64) AppleWebKit/537.36 (KHTML, like Gecko) Chrome/131.0.0.0 Safari/537.36" version="26.0.6">
  <diagram name="Page-1" id="3VrB5hONj2gFAn1QqN-y">
    <mxGraphModel dx="410" dy="632" grid="1" gridSize="10" guides="1" tooltips="1" connect="1" arrows="1" fold="1" page="1" pageScale="1" pageWidth="850" pageHeight="1100" math="0" shadow="0">
      <root>
        <mxCell id="0" />
        <mxCell id="1" parent="0" />
        <mxCell id="6ndvdk9y9sW8_VO3HebO-1" style="rounded=0;orthogonalLoop=1;jettySize=auto;html=1;exitX=0.5;exitY=0.5;exitDx=0;exitDy=0;exitPerimeter=0;entryX=0;entryY=0.5;entryDx=0;entryDy=0;endArrow=none;endFill=0;" parent="1" source="6ndvdk9y9sW8_VO3HebO-7" target="6ndvdk9y9sW8_VO3HebO-21" edge="1">
          <mxGeometry relative="1" as="geometry" />
        </mxCell>
        <mxCell id="6ndvdk9y9sW8_VO3HebO-2" style="rounded=0;orthogonalLoop=1;jettySize=auto;html=1;exitX=0.5;exitY=0.5;exitDx=0;exitDy=0;exitPerimeter=0;entryX=0;entryY=0.5;entryDx=0;entryDy=0;endArrow=none;endFill=0;" parent="1" source="6ndvdk9y9sW8_VO3HebO-7" target="6ndvdk9y9sW8_VO3HebO-22" edge="1">
          <mxGeometry relative="1" as="geometry" />
        </mxCell>
        <mxCell id="6ndvdk9y9sW8_VO3HebO-3" style="rounded=0;orthogonalLoop=1;jettySize=auto;html=1;exitX=0.5;exitY=0.5;exitDx=0;exitDy=0;exitPerimeter=0;entryX=0;entryY=0.5;entryDx=0;entryDy=0;endArrow=none;endFill=0;" parent="1" source="6ndvdk9y9sW8_VO3HebO-7" target="6ndvdk9y9sW8_VO3HebO-23" edge="1">
          <mxGeometry relative="1" as="geometry" />
        </mxCell>
        <mxCell id="6ndvdk9y9sW8_VO3HebO-4" style="rounded=0;orthogonalLoop=1;jettySize=auto;html=1;exitX=0.5;exitY=0.5;exitDx=0;exitDy=0;exitPerimeter=0;entryX=0;entryY=0.5;entryDx=0;entryDy=0;endArrow=none;endFill=0;" parent="1" source="6ndvdk9y9sW8_VO3HebO-7" target="6ndvdk9y9sW8_VO3HebO-24" edge="1">
          <mxGeometry relative="1" as="geometry" />
        </mxCell>
        <mxCell id="6ndvdk9y9sW8_VO3HebO-5" style="rounded=0;orthogonalLoop=1;jettySize=auto;html=1;exitX=0.5;exitY=0.5;exitDx=0;exitDy=0;exitPerimeter=0;entryX=0;entryY=0.5;entryDx=0;entryDy=0;endArrow=none;endFill=0;" parent="1" source="6ndvdk9y9sW8_VO3HebO-7" target="6ndvdk9y9sW8_VO3HebO-33" edge="1">
          <mxGeometry relative="1" as="geometry" />
        </mxCell>
        <mxCell id="6ndvdk9y9sW8_VO3HebO-6" style="rounded=0;orthogonalLoop=1;jettySize=auto;html=1;exitX=0.5;exitY=0.5;exitDx=0;exitDy=0;exitPerimeter=0;entryX=0;entryY=0.5;entryDx=0;entryDy=0;endArrow=none;endFill=0;" parent="1" source="6ndvdk9y9sW8_VO3HebO-7" target="6ndvdk9y9sW8_VO3HebO-29" edge="1">
          <mxGeometry relative="1" as="geometry" />
        </mxCell>
        <mxCell id="c6Y0NQbGY66HrSqKJ__N-8" style="rounded=0;orthogonalLoop=1;jettySize=auto;html=1;entryX=0;entryY=0.5;entryDx=0;entryDy=0;endArrow=none;endFill=0;exitX=0.5;exitY=0.5;exitDx=0;exitDy=0;exitPerimeter=0;" edge="1" parent="1" source="6ndvdk9y9sW8_VO3HebO-7" target="c6Y0NQbGY66HrSqKJ__N-4">
          <mxGeometry relative="1" as="geometry" />
        </mxCell>
        <mxCell id="6ndvdk9y9sW8_VO3HebO-7" value="Employer" style="shape=umlActor;verticalLabelPosition=bottom;verticalAlign=top;html=1;" parent="1" vertex="1">
          <mxGeometry x="930" y="510" width="30" height="60" as="geometry" />
        </mxCell>
        <mxCell id="6ndvdk9y9sW8_VO3HebO-8" style="rounded=0;orthogonalLoop=1;jettySize=auto;html=1;exitX=0.5;exitY=0.5;exitDx=0;exitDy=0;exitPerimeter=0;entryX=0;entryY=0.5;entryDx=0;entryDy=0;endArrow=none;endFill=0;" parent="1" source="6ndvdk9y9sW8_VO3HebO-14" target="6ndvdk9y9sW8_VO3HebO-29" edge="1">
          <mxGeometry relative="1" as="geometry" />
        </mxCell>
        <mxCell id="6ndvdk9y9sW8_VO3HebO-9" style="rounded=0;orthogonalLoop=1;jettySize=auto;html=1;exitX=0.5;exitY=0.5;exitDx=0;exitDy=0;exitPerimeter=0;entryX=0;entryY=0.5;entryDx=0;entryDy=0;endArrow=none;endFill=0;" parent="1" source="6ndvdk9y9sW8_VO3HebO-14" target="6ndvdk9y9sW8_VO3HebO-30" edge="1">
          <mxGeometry relative="1" as="geometry" />
        </mxCell>
        <mxCell id="6ndvdk9y9sW8_VO3HebO-10" style="rounded=0;orthogonalLoop=1;jettySize=auto;html=1;exitX=0.5;exitY=0.5;exitDx=0;exitDy=0;exitPerimeter=0;entryX=0;entryY=0.5;entryDx=0;entryDy=0;endArrow=none;endFill=0;" parent="1" source="6ndvdk9y9sW8_VO3HebO-14" target="6ndvdk9y9sW8_VO3HebO-31" edge="1">
          <mxGeometry relative="1" as="geometry" />
        </mxCell>
        <mxCell id="6ndvdk9y9sW8_VO3HebO-11" style="rounded=0;orthogonalLoop=1;jettySize=auto;html=1;exitX=0.5;exitY=0.5;exitDx=0;exitDy=0;exitPerimeter=0;entryX=0;entryY=0.5;entryDx=0;entryDy=0;endArrow=none;endFill=0;" parent="1" source="6ndvdk9y9sW8_VO3HebO-14" target="6ndvdk9y9sW8_VO3HebO-32" edge="1">
          <mxGeometry relative="1" as="geometry" />
        </mxCell>
        <mxCell id="6ndvdk9y9sW8_VO3HebO-12" style="rounded=0;orthogonalLoop=1;jettySize=auto;html=1;exitX=0.5;exitY=0.5;exitDx=0;exitDy=0;exitPerimeter=0;entryX=0;entryY=0.5;entryDx=0;entryDy=0;endArrow=none;endFill=0;" parent="1" source="6ndvdk9y9sW8_VO3HebO-14" target="6ndvdk9y9sW8_VO3HebO-33" edge="1">
          <mxGeometry relative="1" as="geometry" />
        </mxCell>
        <mxCell id="6ndvdk9y9sW8_VO3HebO-13" style="rounded=0;orthogonalLoop=1;jettySize=auto;html=1;exitX=0.5;exitY=0.5;exitDx=0;exitDy=0;exitPerimeter=0;entryX=0;entryY=0.5;entryDx=0;entryDy=0;endArrow=none;endFill=0;" parent="1" source="6ndvdk9y9sW8_VO3HebO-14" target="6ndvdk9y9sW8_VO3HebO-34" edge="1">
          <mxGeometry relative="1" as="geometry" />
        </mxCell>
        <mxCell id="c6Y0NQbGY66HrSqKJ__N-9" style="rounded=0;orthogonalLoop=1;jettySize=auto;html=1;entryX=0;entryY=0.5;entryDx=0;entryDy=0;endArrow=none;endFill=0;exitX=0.5;exitY=0.5;exitDx=0;exitDy=0;exitPerimeter=0;" edge="1" parent="1" source="6ndvdk9y9sW8_VO3HebO-14" target="c6Y0NQbGY66HrSqKJ__N-4">
          <mxGeometry relative="1" as="geometry" />
        </mxCell>
        <mxCell id="6ndvdk9y9sW8_VO3HebO-14" value="Job Seeker" style="shape=umlActor;verticalLabelPosition=bottom;verticalAlign=top;html=1;" parent="1" vertex="1">
          <mxGeometry x="930" y="690" width="30" height="60" as="geometry" />
        </mxCell>
        <mxCell id="6ndvdk9y9sW8_VO3HebO-15" style="rounded=0;orthogonalLoop=1;jettySize=auto;html=1;exitX=0.5;exitY=0.5;exitDx=0;exitDy=0;exitPerimeter=0;entryX=0;entryY=0.5;entryDx=0;entryDy=0;endArrow=none;endFill=0;" parent="1" source="6ndvdk9y9sW8_VO3HebO-20" target="6ndvdk9y9sW8_VO3HebO-26" edge="1">
          <mxGeometry relative="1" as="geometry" />
        </mxCell>
        <mxCell id="6ndvdk9y9sW8_VO3HebO-16" style="rounded=0;orthogonalLoop=1;jettySize=auto;html=1;exitX=0.5;exitY=0.5;exitDx=0;exitDy=0;exitPerimeter=0;entryX=0;entryY=0.5;entryDx=0;entryDy=0;endArrow=none;endFill=0;" parent="1" source="6ndvdk9y9sW8_VO3HebO-20" target="6ndvdk9y9sW8_VO3HebO-27" edge="1">
          <mxGeometry relative="1" as="geometry" />
        </mxCell>
        <mxCell id="6ndvdk9y9sW8_VO3HebO-17" style="rounded=0;orthogonalLoop=1;jettySize=auto;html=1;exitX=0.5;exitY=0.5;exitDx=0;exitDy=0;exitPerimeter=0;entryX=0;entryY=0.5;entryDx=0;entryDy=0;endArrow=none;endFill=0;" parent="1" source="6ndvdk9y9sW8_VO3HebO-20" target="6ndvdk9y9sW8_VO3HebO-28" edge="1">
          <mxGeometry relative="1" as="geometry" />
        </mxCell>
        <mxCell id="6ndvdk9y9sW8_VO3HebO-20" value="Admin" style="shape=umlActor;verticalLabelPosition=bottom;verticalAlign=top;html=1;" parent="1" vertex="1">
          <mxGeometry x="930" y="880" width="30" height="60" as="geometry" />
        </mxCell>
        <mxCell id="6ndvdk9y9sW8_VO3HebO-21" value="Find Job" style="ellipse;whiteSpace=wrap;html=1;" parent="1" vertex="1">
          <mxGeometry x="1099" y="400" width="110" height="40" as="geometry" />
        </mxCell>
        <mxCell id="6ndvdk9y9sW8_VO3HebO-22" value="Post Job" style="ellipse;whiteSpace=wrap;html=1;" parent="1" vertex="1">
          <mxGeometry x="1102" y="446" width="110" height="40" as="geometry" />
        </mxCell>
        <mxCell id="6ndvdk9y9sW8_VO3HebO-23" value="Search Candidates" style="ellipse;whiteSpace=wrap;html=1;" parent="1" vertex="1">
          <mxGeometry x="1106" y="491" width="110" height="40" as="geometry" />
        </mxCell>
        <mxCell id="6ndvdk9y9sW8_VO3HebO-24" value="View Applicants" style="ellipse;whiteSpace=wrap;html=1;" parent="1" vertex="1">
          <mxGeometry x="1108" y="537" width="110" height="40" as="geometry" />
        </mxCell>
        <mxCell id="6ndvdk9y9sW8_VO3HebO-25" value="Job Portal" style="shape=umlFrame;whiteSpace=wrap;html=1;pointerEvents=0;width=70;height=30;" parent="1" vertex="1">
          <mxGeometry x="1020" y="390" width="470" height="680" as="geometry" />
        </mxCell>
        <mxCell id="6ndvdk9y9sW8_VO3HebO-26" value="Manage Companies" style="ellipse;whiteSpace=wrap;html=1;" parent="1" vertex="1">
          <mxGeometry x="1111" y="923" width="110" height="40" as="geometry" />
        </mxCell>
        <mxCell id="6ndvdk9y9sW8_VO3HebO-27" value="Manage Jobs" style="ellipse;whiteSpace=wrap;html=1;" parent="1" vertex="1">
          <mxGeometry x="1111" y="970" width="110" height="40" as="geometry" />
        </mxCell>
        <mxCell id="6ndvdk9y9sW8_VO3HebO-28" value="Manage Users" style="ellipse;whiteSpace=wrap;html=1;" parent="1" vertex="1">
          <mxGeometry x="1109" y="1020" width="110" height="40" as="geometry" />
        </mxCell>
        <mxCell id="6ndvdk9y9sW8_VO3HebO-29" value="Login&amp;nbsp;" style="ellipse;whiteSpace=wrap;html=1;" parent="1" vertex="1">
          <mxGeometry x="1110" y="630" width="110" height="40" as="geometry" />
        </mxCell>
        <mxCell id="6ndvdk9y9sW8_VO3HebO-30" value="Apply for job" style="ellipse;whiteSpace=wrap;html=1;" parent="1" vertex="1">
          <mxGeometry x="1110" y="780" width="110" height="40" as="geometry" />
        </mxCell>
        <mxCell id="6ndvdk9y9sW8_VO3HebO-31" value="Update Resume" style="ellipse;whiteSpace=wrap;html=1;" parent="1" vertex="1">
          <mxGeometry x="1109" y="830" width="110" height="40" as="geometry" />
        </mxCell>
        <mxCell id="6ndvdk9y9sW8_VO3HebO-32" value="Search Job" style="ellipse;whiteSpace=wrap;html=1;" parent="1" vertex="1">
          <mxGeometry x="1111" y="876" width="110" height="40" as="geometry" />
        </mxCell>
        <mxCell id="6ndvdk9y9sW8_VO3HebO-33" value="Register" style="ellipse;whiteSpace=wrap;html=1;" parent="1" vertex="1">
          <mxGeometry x="1108" y="584" width="110" height="40" as="geometry" />
        </mxCell>
        <mxCell id="6ndvdk9y9sW8_VO3HebO-34" value="View Job Detail" style="ellipse;whiteSpace=wrap;html=1;" parent="1" vertex="1">
          <mxGeometry x="1110" y="730" width="110" height="40" as="geometry" />
        </mxCell>
        <mxCell id="6ndvdk9y9sW8_VO3HebO-35" style="rounded=0;orthogonalLoop=1;jettySize=auto;html=1;exitX=0.5;exitY=0.5;exitDx=0;exitDy=0;exitPerimeter=0;entryX=1;entryY=0.5;entryDx=0;entryDy=0;endArrow=none;endFill=0;" parent="1" source="6ndvdk9y9sW8_VO3HebO-36" target="6ndvdk9y9sW8_VO3HebO-37" edge="1">
          <mxGeometry relative="1" as="geometry" />
        </mxCell>
        <mxCell id="c6Y0NQbGY66HrSqKJ__N-14" style="rounded=0;orthogonalLoop=1;jettySize=auto;html=1;entryX=1;entryY=0.5;entryDx=0;entryDy=0;exitX=0.5;exitY=0.5;exitDx=0;exitDy=0;exitPerimeter=0;endArrow=none;endFill=0;" edge="1" parent="1" source="6ndvdk9y9sW8_VO3HebO-36" target="c6Y0NQbGY66HrSqKJ__N-13">
          <mxGeometry relative="1" as="geometry" />
        </mxCell>
        <mxCell id="6ndvdk9y9sW8_VO3HebO-36" value="API" style="shape=umlActor;verticalLabelPosition=bottom;verticalAlign=top;html=1;" parent="1" vertex="1">
          <mxGeometry x="1570" y="554" width="30" height="60" as="geometry" />
        </mxCell>
        <mxCell id="6ndvdk9y9sW8_VO3HebO-37" value="&lt;font style=&quot;font-size: 10px;&quot;&gt;Integrate with third party apps&lt;/font&gt;" style="ellipse;whiteSpace=wrap;html=1;" parent="1" vertex="1">
          <mxGeometry x="1380" y="417" width="100" height="40" as="geometry" />
        </mxCell>
        <mxCell id="c6Y0NQbGY66HrSqKJ__N-1" value="&amp;lt;&amp;lt;extend&amp;gt;&amp;gt;" style="html=1;verticalAlign=bottom;labelBackgroundColor=none;endArrow=open;endFill=0;dashed=1;rounded=0;exitX=0;exitY=0.5;exitDx=0;exitDy=0;entryX=1;entryY=0.5;entryDx=0;entryDy=0;" edge="1" parent="1" source="c6Y0NQbGY66HrSqKJ__N-2" target="6ndvdk9y9sW8_VO3HebO-22">
          <mxGeometry x="-0.2124" y="-7" width="160" relative="1" as="geometry">
            <mxPoint x="1260" y="805" as="sourcePoint" />
            <mxPoint x="1420" y="805" as="targetPoint" />
            <mxPoint as="offset" />
          </mxGeometry>
        </mxCell>
        <mxCell id="c6Y0NQbGY66HrSqKJ__N-2" value="Social Media Sharings" style="ellipse;whiteSpace=wrap;html=1;" vertex="1" parent="1">
          <mxGeometry x="1273" y="397" width="100" height="40" as="geometry" />
        </mxCell>
        <mxCell id="c6Y0NQbGY66HrSqKJ__N-4" value="Update profile" style="ellipse;whiteSpace=wrap;html=1;" vertex="1" parent="1">
          <mxGeometry x="1110" y="678" width="110" height="40" as="geometry" />
        </mxCell>
        <mxCell id="c6Y0NQbGY66HrSqKJ__N-18" style="rounded=0;orthogonalLoop=1;jettySize=auto;html=1;entryX=1;entryY=0.5;entryDx=0;entryDy=0;endArrow=none;endFill=0;exitX=0.5;exitY=0.5;exitDx=0;exitDy=0;exitPerimeter=0;" edge="1" parent="1" source="c6Y0NQbGY66HrSqKJ__N-6" target="6ndvdk9y9sW8_VO3HebO-21">
          <mxGeometry relative="1" as="geometry" />
        </mxCell>
        <mxCell id="c6Y0NQbGY66HrSqKJ__N-19" style="rounded=0;orthogonalLoop=1;jettySize=auto;html=1;entryX=1;entryY=0.5;entryDx=0;entryDy=0;endArrow=none;endFill=0;exitX=0.5;exitY=0.5;exitDx=0;exitDy=0;exitPerimeter=0;" edge="1" parent="1" source="c6Y0NQbGY66HrSqKJ__N-6" target="6ndvdk9y9sW8_VO3HebO-22">
          <mxGeometry relative="1" as="geometry" />
        </mxCell>
        <mxCell id="c6Y0NQbGY66HrSqKJ__N-20" style="rounded=0;orthogonalLoop=1;jettySize=auto;html=1;entryX=1;entryY=0.5;entryDx=0;entryDy=0;endArrow=none;endFill=0;exitX=0.5;exitY=0.5;exitDx=0;exitDy=0;exitPerimeter=0;" edge="1" parent="1" source="c6Y0NQbGY66HrSqKJ__N-6" target="6ndvdk9y9sW8_VO3HebO-23">
          <mxGeometry relative="1" as="geometry" />
        </mxCell>
        <mxCell id="c6Y0NQbGY66HrSqKJ__N-21" style="rounded=0;orthogonalLoop=1;jettySize=auto;html=1;entryX=1;entryY=0.5;entryDx=0;entryDy=0;endArrow=none;endFill=0;exitX=0.5;exitY=0.5;exitDx=0;exitDy=0;exitPerimeter=0;" edge="1" parent="1" source="c6Y0NQbGY66HrSqKJ__N-6" target="6ndvdk9y9sW8_VO3HebO-24">
          <mxGeometry relative="1" as="geometry" />
        </mxCell>
        <mxCell id="c6Y0NQbGY66HrSqKJ__N-22" style="rounded=0;orthogonalLoop=1;jettySize=auto;html=1;entryX=1;entryY=0.5;entryDx=0;entryDy=0;endArrow=none;endFill=0;exitX=0.5;exitY=0.5;exitDx=0;exitDy=0;exitPerimeter=0;" edge="1" parent="1" source="c6Y0NQbGY66HrSqKJ__N-6" target="c6Y0NQbGY66HrSqKJ__N-10">
          <mxGeometry relative="1" as="geometry" />
        </mxCell>
        <mxCell id="c6Y0NQbGY66HrSqKJ__N-23" style="rounded=0;orthogonalLoop=1;jettySize=auto;html=1;entryX=1;entryY=0.5;entryDx=0;entryDy=0;endArrow=none;endFill=0;exitX=0.5;exitY=0.5;exitDx=0;exitDy=0;exitPerimeter=0;" edge="1" parent="1" source="c6Y0NQbGY66HrSqKJ__N-6" target="c6Y0NQbGY66HrSqKJ__N-4">
          <mxGeometry relative="1" as="geometry" />
        </mxCell>
        <mxCell id="c6Y0NQbGY66HrSqKJ__N-24" style="rounded=0;orthogonalLoop=1;jettySize=auto;html=1;entryX=1;entryY=0.5;entryDx=0;entryDy=0;endArrow=none;endFill=0;exitX=0.5;exitY=0.5;exitDx=0;exitDy=0;exitPerimeter=0;" edge="1" parent="1" source="c6Y0NQbGY66HrSqKJ__N-6" target="6ndvdk9y9sW8_VO3HebO-34">
          <mxGeometry relative="1" as="geometry" />
        </mxCell>
        <mxCell id="c6Y0NQbGY66HrSqKJ__N-25" style="rounded=0;orthogonalLoop=1;jettySize=auto;html=1;entryX=1;entryY=0.5;entryDx=0;entryDy=0;endArrow=none;endFill=0;exitX=0.5;exitY=0.5;exitDx=0;exitDy=0;exitPerimeter=0;" edge="1" parent="1" source="c6Y0NQbGY66HrSqKJ__N-6" target="6ndvdk9y9sW8_VO3HebO-30">
          <mxGeometry relative="1" as="geometry" />
        </mxCell>
        <mxCell id="c6Y0NQbGY66HrSqKJ__N-26" style="rounded=0;orthogonalLoop=1;jettySize=auto;html=1;entryX=1;entryY=0.5;entryDx=0;entryDy=0;endArrow=none;endFill=0;exitX=0.5;exitY=0.5;exitDx=0;exitDy=0;exitPerimeter=0;" edge="1" parent="1" source="c6Y0NQbGY66HrSqKJ__N-6" target="6ndvdk9y9sW8_VO3HebO-31">
          <mxGeometry relative="1" as="geometry" />
        </mxCell>
        <mxCell id="c6Y0NQbGY66HrSqKJ__N-27" style="rounded=0;orthogonalLoop=1;jettySize=auto;html=1;entryX=1;entryY=0.5;entryDx=0;entryDy=0;endArrow=none;endFill=0;exitX=0.5;exitY=0.5;exitDx=0;exitDy=0;exitPerimeter=0;" edge="1" parent="1" source="c6Y0NQbGY66HrSqKJ__N-6" target="6ndvdk9y9sW8_VO3HebO-32">
          <mxGeometry relative="1" as="geometry" />
        </mxCell>
        <mxCell id="c6Y0NQbGY66HrSqKJ__N-28" style="rounded=0;orthogonalLoop=1;jettySize=auto;html=1;entryX=1;entryY=0.5;entryDx=0;entryDy=0;endArrow=none;endFill=0;exitX=0.5;exitY=0.5;exitDx=0;exitDy=0;exitPerimeter=0;" edge="1" parent="1" source="c6Y0NQbGY66HrSqKJ__N-6" target="6ndvdk9y9sW8_VO3HebO-26">
          <mxGeometry relative="1" as="geometry" />
        </mxCell>
        <mxCell id="c6Y0NQbGY66HrSqKJ__N-29" style="rounded=0;orthogonalLoop=1;jettySize=auto;html=1;entryX=1;entryY=0.5;entryDx=0;entryDy=0;endArrow=none;endFill=0;exitX=0.5;exitY=0.5;exitDx=0;exitDy=0;exitPerimeter=0;" edge="1" parent="1" source="c6Y0NQbGY66HrSqKJ__N-6" target="6ndvdk9y9sW8_VO3HebO-27">
          <mxGeometry relative="1" as="geometry" />
        </mxCell>
        <mxCell id="c6Y0NQbGY66HrSqKJ__N-30" style="rounded=0;orthogonalLoop=1;jettySize=auto;html=1;entryX=1;entryY=0.5;entryDx=0;entryDy=0;endArrow=none;endFill=0;exitX=0.5;exitY=0.5;exitDx=0;exitDy=0;exitPerimeter=0;" edge="1" parent="1" source="c6Y0NQbGY66HrSqKJ__N-6" target="6ndvdk9y9sW8_VO3HebO-28">
          <mxGeometry relative="1" as="geometry" />
        </mxCell>
        <mxCell id="c6Y0NQbGY66HrSqKJ__N-31" style="rounded=0;orthogonalLoop=1;jettySize=auto;html=1;entryX=0.5;entryY=1;entryDx=0;entryDy=0;endArrow=none;endFill=0;exitX=0.5;exitY=0.5;exitDx=0;exitDy=0;exitPerimeter=0;" edge="1" parent="1" source="c6Y0NQbGY66HrSqKJ__N-6" target="c6Y0NQbGY66HrSqKJ__N-13">
          <mxGeometry relative="1" as="geometry" />
        </mxCell>
        <mxCell id="c6Y0NQbGY66HrSqKJ__N-32" style="rounded=0;orthogonalLoop=1;jettySize=auto;html=1;entryX=0.5;entryY=1;entryDx=0;entryDy=0;endArrow=none;endFill=0;exitX=0.5;exitY=0.5;exitDx=0;exitDy=0;exitPerimeter=0;" edge="1" parent="1" source="c6Y0NQbGY66HrSqKJ__N-6" target="6ndvdk9y9sW8_VO3HebO-37">
          <mxGeometry relative="1" as="geometry" />
        </mxCell>
        <mxCell id="c6Y0NQbGY66HrSqKJ__N-6" value="Database" style="shape=umlActor;verticalLabelPosition=bottom;verticalAlign=top;html=1;" vertex="1" parent="1">
          <mxGeometry x="1570" y="658" width="30" height="60" as="geometry" />
        </mxCell>
        <mxCell id="c6Y0NQbGY66HrSqKJ__N-10" value="Authentication" style="ellipse;whiteSpace=wrap;html=1;" vertex="1" parent="1">
          <mxGeometry x="1310" y="630" width="110" height="40" as="geometry" />
        </mxCell>
        <mxCell id="c6Y0NQbGY66HrSqKJ__N-13" value="&lt;font style=&quot;font-size: 10px;&quot;&gt;Integrate with HR Systems&lt;/font&gt;" style="ellipse;whiteSpace=wrap;html=1;" vertex="1" parent="1">
          <mxGeometry x="1320" y="460" width="104" height="46" as="geometry" />
        </mxCell>
        <mxCell id="c6Y0NQbGY66HrSqKJ__N-16" value="&amp;lt;&amp;lt;include&amp;gt;&amp;gt;" style="html=1;verticalAlign=bottom;labelBackgroundColor=none;endArrow=open;endFill=0;dashed=1;rounded=0;exitX=0.958;exitY=0.599;exitDx=0;exitDy=0;exitPerimeter=0;entryX=0;entryY=0.5;entryDx=0;entryDy=0;" edge="1" parent="1" source="6ndvdk9y9sW8_VO3HebO-29" target="c6Y0NQbGY66HrSqKJ__N-10">
          <mxGeometry width="160" relative="1" as="geometry">
            <mxPoint x="1290" y="640" as="sourcePoint" />
            <mxPoint x="1450" y="640" as="targetPoint" />
          </mxGeometry>
        </mxCell>
        <mxCell id="c6Y0NQbGY66HrSqKJ__N-17" value="&amp;lt;&amp;lt;include&amp;gt;&amp;gt;" style="html=1;verticalAlign=bottom;labelBackgroundColor=none;endArrow=open;endFill=0;dashed=1;rounded=0;exitX=1;exitY=0.5;exitDx=0;exitDy=0;" edge="1" parent="1" source="6ndvdk9y9sW8_VO3HebO-33" target="c6Y0NQbGY66HrSqKJ__N-10">
          <mxGeometry width="160" relative="1" as="geometry">
            <mxPoint x="1290" y="640" as="sourcePoint" />
            <mxPoint x="1450" y="640" as="targetPoint" />
          </mxGeometry>
        </mxCell>
      </root>
    </mxGraphModel>
  </diagram>
</mxfile>
